<svg xmlns="http://www.w3.org/2000/svg" width="1024" height="1024" viewBox="0 0 1024 1024">
  <defs>
    <linearGradient id="g" x1="0" x2="0" y1="0" y2="1">
      <stop offset="0%" stop-color="#2b5d34"/>
      <stop offset="100%" stop-color="#1f4527"/>
    </linearGradient>
    <pattern id="p" width="64" height="64" patternUnits="userSpaceOnUse">
      <rect width="64" height="64" fill="none"/>
      <circle cx="8" cy="12" r="1.5" fill="#2f6a39"/>
      <circle cx="22" cy="28" r="1.2" fill="#2f6a39"/>
      <circle cx="40" cy="10" r="1.4" fill="#2f6a39"/>
      <circle cx="54" cy="44" r="1.6" fill="#2f6a39"/>
      <circle cx="12" cy="50" r="1.3" fill="#2f6a39"/>
      <circle cx="34" cy="54" r="1.1" fill="#2f6a39"/>
    </pattern>
  </defs>
  <rect x="0" y="0" width="1024" height="1024" fill="url(#g)"/>
  <rect x="0" y="0" width="1024" height="1024" fill="url(#p)" opacity="0.35"/>
  <!-- Rivers -->
  <path d="M 0 200 C 200 240, 300 160, 512 200 C 724 240, 824 160, 1024 200" stroke="#3aa0ff" stroke-width="14" fill="none" opacity="0.25"/>
  <path d="M 0 760 C 160 740, 360 860, 512 820 C 664 780, 824 900, 1024 880" stroke="#3aa0ff" stroke-width="12" fill="none" opacity="0.22"/>
  <!-- Fields -->
  <g opacity="0.25" fill="#6fa35f">
    <rect x="80" y="80" width="140" height="90"/>
    <rect x="300" y="140" width="120" height="100"/>
    <rect x="680" y="120" width="140" height="100"/>
    <rect x="820" y="340" width="120" height="90"/>
    <rect x="160" y="480" width="160" height="110"/>
    <rect x="520" y="520" width="120" height="100"/>
    <rect x="760" y="700" width="160" height="110"/>
    <rect x="140" y="760" width="140" height="90"/>
  </g>
</svg>

